ply
format ascii 1.0
comment Created by Blender 2.91.0 - www.blender.org
element vertex 666
property float x
property float y
property float z
element face 664
property list uchar uint vertex_indices
end_header
-2.066000 -23.809902 33.652199
-1.486296 -24.075480 33.709362
-2.418447 -23.732616 34.671604
-2.664406 -23.705252 34.057705
-2.998152 -22.302732 33.839573
-2.866611 -22.979597 33.754105
-2.489440 -23.325085 33.052010
-2.568131 -23.553284 33.477676
-0.769027 -26.212589 32.585129
0.000000 -26.228344 32.648746
0.000000 -24.849901 33.907093
-1.123659 -27.620802 31.081167
0.000000 -27.879997 31.097757
0.000000 -28.475599 30.525957
-1.289376 -28.067602 30.523785
-1.441068 -27.916468 29.435574
0.000000 -28.201189 29.391785
-0.859737 -26.914606 28.822113
0.000000 -26.981363 28.714911
0.000000 -26.036663 29.082218
-1.050278 -25.936874 29.355806
-1.235433 -23.870966 29.758272
0.000000 -23.955244 29.343098
-1.741147 -20.403761 30.480465
0.000000 -21.516579 29.442072
0.000000 -23.038057 35.655163
-1.311507 -22.554762 36.354065
0.000000 -21.555946 36.686214
-1.179737 -21.103500 36.885960
-2.715046 -21.599411 31.894835
-1.922541 -24.049194 31.608736
-2.609269 -21.706221 36.111397
-2.474855 -20.105839 35.271843
-1.777482 -26.257034 30.705341
-2.837822 -19.586391 34.378563
-2.709380 -18.487564 34.674488
0.000000 -18.118906 36.309479
-1.199479 -19.643404 36.627235
-2.231565 -19.857319 35.386055
-2.305810 -20.663155 36.372921
-1.988884 -21.210974 38.065716
-2.088055 -22.085676 38.011906
-2.947512 -21.904673 37.516273
-2.879569 -20.860477 37.582821
-4.157207 -23.344646 40.090996
-4.157816 -23.393633 40.090996
-4.104940 -23.397045 40.090996
-4.093328 -23.345161 40.090996
-3.551762 -20.643816 38.240353
-3.466846 -20.930058 38.794563
-3.936123 -21.615904 38.057240
-3.855856 -21.870338 38.998589
-4.522917 -19.833904 39.372261
-4.599652 -21.206629 39.195297
-4.508892 -21.213182 38.466938
-3.084187 -19.341038 41.048756
-3.066071 -19.288887 41.026794
-3.098035 -19.279854 41.056164
-3.121030 -19.328669 41.063793
-4.160052 -20.281834 38.552204
-5.488863 -19.161654 39.608742
-5.993814 -20.209925 39.756092
-6.060030 -22.688032 42.203270
-6.045954 -22.699394 42.134995
-5.959945 -22.646677 42.093136
-5.974859 -22.634552 42.159149
-5.369416 -19.245811 38.954983
-5.908186 -20.276680 38.971348
-7.132033 -19.260317 40.556877
-6.488628 -18.548330 40.332020
-7.153809 -17.788637 41.332325
-7.732751 -18.560701 41.597042
-8.687263 -19.820162 44.204678
-8.585322 -19.820162 44.204678
-8.585322 -19.772131 44.204678
-8.687263 -19.772131 44.204678
-6.636330 -18.504105 39.467091
-7.443471 -17.452719 40.634247
-7.252446 -19.139149 39.713058
-7.976143 -17.844028 40.775097
-7.283928 -17.468279 41.678226
-7.987425 -17.684477 42.120064
-8.229597 -17.224201 41.565765
-7.614016 -17.119970 41.151455
-8.061620 -16.595566 43.118176
-7.428352 -15.745724 42.754704
-7.602556 -13.895986 44.019505
-8.128470 -14.161097 44.356464
-8.257853 -16.054741 42.191490
-8.236458 -13.631536 43.753746
-7.700507 -15.662007 42.275333
-7.839393 -13.530053 43.608677
-7.755874 -13.181350 46.440170
-7.981581 -13.270245 46.448845
-8.029197 -12.894912 46.439682
-7.854105 -12.811933 46.429546
-7.874432 -13.220201 47.493027
-7.928934 -13.242314 47.493469
-7.936734 -13.157839 47.501675
-7.900704 -13.146646 47.506290
-3.611321 -22.555868 38.901234
-3.844575 -22.887146 38.685760
-3.364803 -22.100672 38.728947
-4.382990 -22.744673 38.803768
-4.031153 -23.164158 39.706474
-4.056917 -23.306850 39.670338
-4.182666 -22.488741 39.205170
-4.214732 -23.080837 39.733688
-4.252159 -23.262257 39.671825
-3.461484 -19.601509 39.404736
-3.593916 -19.726749 39.696007
-3.815736 -19.280663 39.549473
-4.022259 -19.494699 39.967552
-3.364600 -18.977510 40.275368
-3.395319 -19.264170 40.365982
-3.575774 -18.935223 40.323326
-3.646436 -19.187670 40.448494
-5.844029 -21.543135 40.508808
-5.962155 -21.602137 40.241608
-6.678027 -21.328754 40.651905
-6.563686 -21.449480 40.269955
-6.318617 -21.878168 41.435917
-6.243254 -22.034409 41.288960
-6.797499 -21.808739 41.468033
-6.719519 -21.966007 41.309456
-8.534073 -19.337505 41.668400
-9.048375 -19.142193 41.103786
-8.278129 -18.934071 41.930630
-8.812530 -18.778248 41.730309
-8.736709 -19.672071 43.312908
-9.162741 -19.672071 43.312908
-8.736709 -19.471287 43.312908
-9.162741 -19.471287 43.312908
-6.478160 -16.169159 46.564121
-6.574409 -16.204527 46.565964
-6.548619 -16.275284 46.565475
-6.450565 -16.231842 46.563610
-11.270335 -14.281749 49.633694
-11.226276 -14.184682 49.654255
-11.325778 -14.128700 49.667030
-11.380000 -14.231093 49.645382
-10.037697 -16.483797 43.404205
-9.770979 -16.795122 43.905090
-10.462662 -17.069656 43.342541
-10.145406 -17.349886 43.877052
-11.257758 -15.871677 44.741009
-10.947692 -16.170067 45.191387
-11.673728 -16.456654 44.711243
-11.327251 -16.734058 45.179829
-11.641763 -14.490877 47.089054
-11.327226 -14.818989 47.145481
-11.983768 -14.764824 47.198318
-11.622858 -15.088763 47.248848
-7.490909 -16.286793 43.817009
-6.772294 -15.923855 43.504803
-7.099307 -17.011957 43.606548
-6.475543 -16.566751 43.401611
-6.729708 -16.070866 45.333019
-6.341713 -15.901128 45.250656
-6.625735 -16.410341 45.310947
-6.230422 -16.201923 45.227032
-6.065214 -16.429384 36.614544
-4.181624 -18.407970 36.395344
-3.756533 -18.059931 36.354599
-3.899992 -16.918596 35.482437
-2.225365 -15.031479 32.378975
0.000000 -14.068814 33.635921
0.000000 -9.320994 31.664656
-3.192226 -10.852045 29.430162
-3.363228 -6.609464 30.465025
0.000000 -6.069303 31.634556
0.000000 -4.539725 32.015598
-3.087973 -3.247992 30.281673
0.000000 2.453508 31.394621
-3.419458 2.453508 30.443024
0.000000 11.035713 32.136906
-2.506337 10.623788 30.645411
0.000000 15.796514 32.061028
-3.079487 15.953147 31.562870
0.000000 -19.542629 26.168985
-2.251536 -18.147226 28.025127
-2.993706 -13.079690 21.720648
0.000000 -15.225880 20.823132
-1.757282 -10.443554 18.212013
0.000000 -11.515360 17.439913
0.000000 21.502041 25.893341
0.000000 19.683693 21.840435
-0.581763 20.913015 21.609833
-0.783967 22.086475 25.870670
0.000000 16.234234 19.855837
-0.596449 16.452028 19.552767
0.000000 12.558126 18.167454
-1.932451 12.173369 18.771441
0.000000 8.444345 17.016157
-2.012514 8.662408 17.993349
-2.187633 2.453511 18.072426
0.000000 2.453511 17.428646
0.000000 -3.475010 16.879648
-1.788890 -3.276827 17.442066
0.000000 -7.362458 16.530287
-1.048093 -7.045341 17.166634
-4.756120 -2.496835 21.426630
-5.337477 2.440895 21.329231
-2.544019 -3.717296 17.766829
-4.196768 -4.018435 18.075397
-4.744559 -6.854177 17.119942
-3.497844 -5.956992 12.258492
-3.901872 -7.152223 12.309842
-4.213792 -8.850410 17.860102
-3.522923 -8.412297 12.265479
-2.556266 -8.850410 17.860102
-2.234030 -8.412297 12.265479
-1.565394 -7.152223 12.309842
-1.753750 -6.854177 17.119942
-2.203336 -5.935493 12.258492
-5.422902 -7.334136 24.220835
-2.422945 20.901260 7.285182
-3.206429 20.901260 7.285182
-3.411276 20.744164 3.466892
-2.069049 20.744164 3.466892
-4.010978 19.823984 0.848054
-2.901827 19.567856 0.959517
-2.976606 19.816351 1.752246
-3.100220 22.502089 3.919199
-2.226813 22.502089 3.919199
-2.467462 22.682478 2.981867
-2.763882 22.682478 2.981867
-1.953617 21.901281 3.923680
-1.907067 22.682478 2.981867
-3.351591 22.682478 2.981867
-3.332000 22.503633 2.063123
-3.335075 22.473886 2.069134
-3.423777 22.056416 2.637673
-1.979508 22.501867 2.064853
-1.979508 22.472588 2.070221
-2.448532 22.056416 2.637673
-3.311749 22.503633 2.063101
-3.311749 22.474356 2.068469
-1.956386 22.501915 2.064875
-1.957250 22.473005 2.071197
-2.806899 22.056416 2.637673
-1.925032 22.056416 2.637673
-3.706045 21.186499 0.136665
-2.798591 19.567856 0.959517
-2.902335 21.186743 0.136554
-2.795161 21.187529 0.136199
-1.906585 19.158606 0.000003
-1.522503 19.823984 0.848054
-2.773842 18.468512 0.000003
-2.926347 18.468512 0.000003
-3.688615 19.158606 0.000003
-1.906585 20.852005 0.000003
-1.887731 21.185886 0.136931
-3.688615 20.852005 0.000003
-2.773842 20.852005 0.000003
-2.926347 20.852005 0.000003
-3.032378 22.214468 7.451190
-2.188954 22.214468 7.451190
-3.477187 22.192774 12.857646
-3.667907 20.805397 12.362927
-4.474234 18.596722 14.944899
-4.258105 20.060574 15.378795
-3.051486 18.940516 11.991516
-3.613912 16.774130 14.502994
-2.124949 20.060574 15.378795
-1.769300 22.192774 12.857646
-4.623003 19.551752 18.315651
-2.034823 19.551752 18.315651
-3.837460 14.190734 16.640955
-4.976314 17.109331 17.722712
-2.075758 17.109331 17.722712
-2.124949 18.596722 14.944899
-1.715535 20.805397 12.362927
-2.433109 14.190734 16.640955
-2.124949 16.774130 14.502994
-2.462939 18.940516 11.991516
-4.555339 12.379553 19.146177
-6.090598 16.710291 20.887239
-5.032112 21.472221 21.671389
-4.502946 9.690158 22.537737
-6.294656 15.364612 27.052710
-5.028911 20.433964 26.723600
-1.638393 21.492933 29.939505
0.000000 21.574612 30.314442
0.000000 23.828815 28.448471
-0.889846 23.360687 28.146223
-0.862201 22.540419 27.518927
-0.560775 22.845387 27.339209
0.000000 22.166880 27.375189
0.000000 22.685541 27.208160
0.000000 24.148191 26.427076
-0.664062 23.945417 26.575361
-0.544564 23.738352 26.489185
0.000000 23.697290 26.284115
-5.662229 -16.883181 35.204742
-4.297286 -17.970840 35.638153
-4.218340 -17.590773 34.256809
-2.344076 -23.566217 33.727375
-2.496936 -23.510801 33.834560
-2.569351 -23.332914 33.756744
-2.468681 -23.469273 33.671299
-2.613766 19.816351 1.752246
-3.231889 21.526707 7.364992
-3.371638 21.900030 3.923480
-2.029462 21.526707 7.364992
-2.422945 -8.381666 7.087272
-3.206429 -8.381666 7.087272
-3.411276 -8.876080 3.466887
-2.069049 -8.876080 3.466887
-4.010978 -9.796261 0.848049
-2.901827 -10.052413 0.959512
-2.976606 -9.803893 1.752241
-3.100220 -7.118156 3.919194
-2.226813 -7.118156 3.919194
-2.467462 -6.937768 2.981862
-2.763882 -6.937768 2.981862
-1.953617 -7.718963 3.923675
-1.907093 -6.937768 2.981862
-3.351591 -6.937768 2.981862
-3.332000 -7.116611 2.063118
-3.335075 -7.146357 2.069130
-3.423777 -7.563828 2.637669
-1.979508 -7.118378 2.064848
-1.979508 -7.147657 2.070216
-2.448532 -7.563828 2.637669
-3.311749 -7.116611 2.063096
-3.311749 -7.145890 2.068464
-1.956386 -7.118353 2.064871
-1.957250 -7.147264 2.071193
-2.806899 -7.563828 2.637669
-1.925032 -7.563828 2.637669
-3.706045 -8.433745 0.136660
-2.798591 -10.052413 0.959512
-2.902335 -8.433524 0.136549
-2.795161 -8.432714 0.136194
-1.906585 -10.461639 -0.000002
-1.522503 -9.796261 0.848049
-2.773842 -11.151731 -0.000002
-2.926347 -11.151731 -0.000002
-3.688615 -10.461639 -0.000002
-1.906585 -8.768238 -0.000001
-1.887731 -8.434383 0.136926
-3.688615 -8.768238 -0.000001
-2.773842 -8.768238 -0.000001
-2.926347 -8.768238 -0.000001
-3.032378 -7.055696 7.096944
-2.188954 -7.055696 7.096944
-2.613766 -9.803893 1.752241
-3.231889 -7.750060 7.092618
-3.371638 -7.720215 3.923475
-2.029462 -7.750060 7.092618
2.066000 -23.809902 33.652199
2.664406 -23.705252 34.057705
2.418447 -23.732616 34.671604
1.486296 -24.075480 33.709362
2.866611 -22.979597 33.754105
2.998152 -22.302732 33.839573
2.568131 -23.553284 33.477676
2.489440 -23.325085 33.052010
0.769027 -26.212589 32.585129
1.123659 -27.620802 31.081167
1.441068 -27.916468 29.435574
1.289376 -28.067602 30.523785
0.859737 -26.914606 28.822113
1.235433 -23.870966 29.758272
1.050278 -25.936874 29.355806
1.741147 -20.403761 30.480465
1.311507 -22.554762 36.354065
1.179737 -21.103500 36.885960
1.922541 -24.049194 31.608736
2.715046 -21.599411 31.894835
2.474855 -20.105839 35.271843
2.609269 -21.706221 36.111397
1.777482 -26.257034 30.705341
2.709380 -18.487564 34.674488
2.837822 -19.586391 34.378563
1.199479 -19.643404 36.627235
2.305810 -20.663155 36.372921
2.231565 -19.857319 35.386055
2.088055 -22.085676 38.011906
1.988884 -21.210974 38.065716
2.947512 -21.904673 37.516273
2.879569 -20.860477 37.582821
4.104940 -23.397045 40.090996
4.157816 -23.393633 40.090996
4.157207 -23.344646 40.090996
4.093328 -23.345161 40.090996
3.466846 -20.930058 38.794563
3.551762 -20.643816 38.240353
3.936123 -21.615904 38.057240
3.855856 -21.870338 38.998589
4.599652 -21.206629 39.195297
4.522917 -19.833904 39.372261
4.508892 -21.213182 38.466938
3.084187 -19.341038 41.048756
3.121030 -19.328669 41.063793
3.098035 -19.279854 41.056164
3.066071 -19.288887 41.026794
4.160052 -20.281834 38.552204
5.993814 -20.209925 39.756092
5.488863 -19.161654 39.608742
5.959945 -22.646677 42.093136
6.045954 -22.699394 42.134995
6.060030 -22.688032 42.203270
5.974859 -22.634552 42.159149
5.369416 -19.245811 38.954983
5.908186 -20.276680 38.971348
7.132033 -19.260317 40.556877
7.732751 -18.560701 41.597042
7.153809 -17.788637 41.332325
6.488628 -18.548330 40.332020
8.687263 -19.820162 44.204678
8.687263 -19.772131 44.204678
8.585322 -19.772131 44.204678
8.585322 -19.820162 44.204678
7.443471 -17.452719 40.634247
6.636330 -18.504105 39.467091
7.976143 -17.844028 40.775097
7.252446 -19.139149 39.713058
7.987425 -17.684477 42.120064
7.283928 -17.468279 41.678226
8.229597 -17.224201 41.565765
7.614016 -17.119970 41.151455
8.061620 -16.595566 43.118176
8.128470 -14.161097 44.356464
7.602556 -13.895986 44.019505
7.428352 -15.745724 42.754704
8.257853 -16.054741 42.191490
8.236458 -13.631536 43.753746
7.839393 -13.530053 43.608677
7.700507 -15.662007 42.275333
7.981581 -13.270245 46.448845
7.755874 -13.181350 46.440170
8.029197 -12.894912 46.439682
7.854105 -12.811933 46.429546
7.928934 -13.242314 47.493469
7.874432 -13.220201 47.493027
7.936734 -13.157839 47.501675
7.900704 -13.146646 47.506290
3.844575 -22.887146 38.685760
3.611321 -22.555868 38.901234
3.364803 -22.100672 38.728947
4.382990 -22.744673 38.803768
4.056917 -23.306850 39.670338
4.031153 -23.164158 39.706474
4.214732 -23.080837 39.733688
4.182666 -22.488741 39.205170
4.252159 -23.262257 39.671825
3.593916 -19.726749 39.696007
3.461484 -19.601509 39.404736
3.815736 -19.280663 39.549473
4.022259 -19.494699 39.967552
3.395319 -19.264170 40.365982
3.364600 -18.977510 40.275368
3.575774 -18.935223 40.323326
3.646436 -19.187670 40.448494
5.962155 -21.602137 40.241608
5.844029 -21.543135 40.508808
6.678027 -21.328754 40.651905
6.563686 -21.449480 40.269955
6.243254 -22.034409 41.288960
6.318617 -21.878168 41.435917
6.797499 -21.808739 41.468033
6.719519 -21.966007 41.309456
9.048375 -19.142193 41.103786
8.534073 -19.337505 41.668400
8.278129 -18.934071 41.930630
8.812530 -18.778248 41.730309
9.162741 -19.672071 43.312908
8.736709 -19.672071 43.312908
8.736709 -19.471287 43.312908
9.162741 -19.471287 43.312908
6.548619 -16.275284 46.565475
6.574409 -16.204527 46.565964
6.478160 -16.169159 46.564121
6.450565 -16.231842 46.563610
11.270335 -14.281749 49.633694
11.380000 -14.231093 49.645382
11.325778 -14.128700 49.667030
11.226276 -14.184682 49.654255
9.770979 -16.795122 43.905090
10.037697 -16.483797 43.404205
10.462662 -17.069656 43.342541
10.145406 -17.349886 43.877052
10.947692 -16.170067 45.191387
11.257758 -15.871677 44.741009
11.673728 -16.456654 44.711243
11.327251 -16.734058 45.179829
11.327226 -14.818989 47.145481
11.641763 -14.490877 47.089054
11.983768 -14.764824 47.198318
11.622858 -15.088763 47.248848
6.772294 -15.923855 43.504803
7.490909 -16.286793 43.817009
7.099307 -17.011957 43.606548
6.475543 -16.566751 43.401611
6.341713 -15.901128 45.250656
6.729708 -16.070866 45.333019
6.625735 -16.410341 45.310947
6.230422 -16.201923 45.227032
3.756533 -18.059931 36.354599
4.181624 -18.407970 36.395344
6.065214 -16.429384 36.614544
3.899992 -16.918596 35.482437
2.225365 -15.031479 32.378975
3.192226 -10.852045 29.430162
3.363228 -6.609464 30.465025
3.087973 -3.247992 30.281673
3.419458 2.453508 30.443024
2.506337 10.623788 30.645411
3.079487 15.953147 31.562870
2.993706 -13.079690 21.720648
2.251536 -18.147226 28.025127
1.757282 -10.443554 18.212013
0.783967 22.086475 25.870670
0.581763 20.913015 21.609833
0.596449 16.452028 19.552767
1.932451 12.173369 18.771441
2.012514 8.662408 17.993349
2.187633 2.453511 18.072426
1.788890 -3.276827 17.442066
1.048093 -7.045341 17.166634
5.337477 2.440895 21.329231
4.756120 -2.496835 21.426630
2.544019 -3.717296 17.766829
4.196768 -4.018435 18.075397
4.744559 -6.854177 17.119942
3.901872 -7.152223 12.309842
3.497844 -5.956992 12.258492
4.213792 -8.850410 17.860102
3.522923 -8.412297 12.265479
1.565394 -7.152223 12.309842
2.234030 -8.412297 12.265479
2.556266 -8.850410 17.860102
1.753750 -6.854177 17.119942
2.203336 -5.935493 12.258492
5.422902 -7.334136 24.220835
2.422945 20.901260 7.285182
2.069049 20.744164 3.466892
3.411276 20.744164 3.466892
3.206429 20.901260 7.285182
4.010978 19.823984 0.848054
2.976606 19.816351 1.752246
2.901827 19.567856 0.959517
3.100220 22.502089 3.919199
2.763882 22.682478 2.981867
2.467462 22.682478 2.981867
2.226813 22.502089 3.919199
1.907067 22.682478 2.981867
1.953617 21.901281 3.923680
3.351591 22.682478 2.981867
3.423777 22.056416 2.637673
3.335075 22.473886 2.069134
3.332000 22.503633 2.063123
2.448532 22.056416 2.637673
1.979508 22.472588 2.070221
1.979508 22.501867 2.064853
3.311749 22.503633 2.063101
3.311749 22.474356 2.068469
1.957250 22.473005 2.071197
1.956386 22.501915 2.064875
2.806899 22.056416 2.637673
1.925032 22.056416 2.637673
3.706045 21.186499 0.136665
2.902335 21.186743 0.136554
2.798591 19.567856 0.959517
2.795161 21.187529 0.136199
1.522503 19.823984 0.848054
1.906585 19.158606 0.000003
2.773842 18.468512 0.000003
2.926347 18.468512 0.000003
3.688615 19.158606 0.000003
1.887731 21.185886 0.136931
1.906585 20.852005 0.000003
3.688615 20.852005 0.000003
2.773842 20.852005 0.000003
2.926347 20.852005 0.000003
3.032378 22.214468 7.451190
2.188954 22.214468 7.451190
3.477187 22.192774 12.857646
4.258105 20.060574 15.378795
4.474234 18.596722 14.944899
3.667907 20.805397 12.362927
3.613912 16.774130 14.502994
3.051486 18.940516 11.991516
2.124949 20.060574 15.378795
1.769300 22.192774 12.857646
2.034823 19.551752 18.315651
4.623003 19.551752 18.315651
4.976314 17.109331 17.722712
3.837460 14.190734 16.640955
2.124949 18.596722 14.944899
2.075758 17.109331 17.722712
1.715535 20.805397 12.362927
2.124949 16.774130 14.502994
2.433109 14.190734 16.640955
2.462939 18.940516 11.991516
6.090598 16.710291 20.887239
4.555339 12.379553 19.146177
5.032112 21.472221 21.671389
6.294656 15.364612 27.052710
4.502946 9.690158 22.537737
5.028911 20.433964 26.723600
1.638393 21.492933 29.939505
0.889846 23.360687 28.146223
0.862201 22.540419 27.518927
0.560775 22.845387 27.339209
0.664062 23.945417 26.575361
0.544564 23.738352 26.489185
4.297286 -17.970840 35.638153
5.662229 -16.883181 35.204742
4.218340 -17.590773 34.256809
2.344076 -23.566217 33.727375
2.468681 -23.469273 33.671299
2.569351 -23.332914 33.756744
2.496936 -23.510801 33.834560
2.613766 19.816351 1.752246
3.371638 21.900030 3.923480
3.231889 21.526707 7.364992
2.029462 21.526707 7.364992
2.422945 -8.381666 7.087272
2.069049 -8.876080 3.466887
3.411276 -8.876080 3.466887
3.206429 -8.381666 7.087272
4.010978 -9.796261 0.848049
2.976606 -9.803893 1.752241
2.901827 -10.052413 0.959512
3.100220 -7.118156 3.919194
2.763882 -6.937768 2.981862
2.467462 -6.937768 2.981862
2.226813 -7.118156 3.919194
1.907093 -6.937768 2.981862
1.953617 -7.718963 3.923675
3.351591 -6.937768 2.981862
3.423777 -7.563828 2.637669
3.335075 -7.146357 2.069130
3.332000 -7.116611 2.063118
2.448532 -7.563828 2.637669
1.979508 -7.147657 2.070216
1.979508 -7.118378 2.064848
3.311749 -7.116611 2.063096
3.311749 -7.145890 2.068464
1.957250 -7.147264 2.071193
1.956386 -7.118353 2.064871
2.806899 -7.563828 2.637669
1.925032 -7.563828 2.637669
3.706045 -8.433745 0.136660
2.902335 -8.433524 0.136549
2.798591 -10.052413 0.959512
2.795161 -8.432714 0.136194
1.522503 -9.796261 0.848049
1.906585 -10.461639 -0.000002
2.773842 -11.151731 -0.000002
2.926347 -11.151731 -0.000002
3.688615 -10.461639 -0.000002
1.887731 -8.434383 0.136926
1.906585 -8.768238 -0.000001
3.688615 -8.768238 -0.000001
2.773842 -8.768238 -0.000001
2.926347 -8.768238 -0.000001
3.032378 -7.055696 7.096944
2.188954 -7.055696 7.096944
2.613766 -9.803893 1.752241
3.371638 -7.720215 3.923475
3.231889 -7.750060 7.092618
2.029462 -7.750060 7.092618
4 0 1 2 3
4 3 2 4 5
4 5 4 6 7
4 6 1 0 7
4 1 8 9 10
4 11 12 9 8
4 13 14 15 16
4 16 15 17 18
4 19 20 21 22
4 22 21 23 24
4 25 26 1 10
4 25 27 28 26
4 6 4 29 30
4 4 2 31 32
4 15 33 20 17
4 1 6 30 8
4 20 33 30 21
4 29 34 35 23
4 23 21 30 29
4 27 36 37 28
4 37 38 39 28
4 26 28 40 41
4 31 26 41 42
4 28 39 43 40
4 31 42 43 39
4 44 45 46 47
4 43 48 49 40
4 43 42 50 48
4 51 49 52 53
4 50 51 53 54
4 55 56 57 58
4 48 50 54 59
4 52 60 61 53
4 62 63 64 65
4 52 59 66 60
4 59 54 67 66
4 68 69 70 71
4 72 73 74 75
4 69 76 77 70
4 76 78 79 77
4 70 80 81 71
4 71 81 82 79
4 70 77 83 80
4 77 79 82 83
4 84 85 86 87
4 88 84 87 89
4 85 90 91 86
4 90 88 89 91
4 87 86 92 93
4 89 87 93 94
4 86 91 95 92
4 91 89 94 95
4 93 92 96 97
4 94 93 97 98
4 92 95 99 96
4 95 94 98 99
4 14 11 33 15
4 13 12 11 14
4 41 100 101 42
4 49 51 102 40
4 50 42 101 103
4 101 100 104 105
4 100 106 107 104
4 106 103 108 107
4 103 101 105 108
4 47 46 105 104
4 104 107 44 47
4 107 108 45 44
4 108 105 46 45
4 49 48 109 110
4 48 59 111 109
4 52 112 111 59
4 52 49 110 112
4 110 109 113 114
4 109 111 115 113
4 111 112 116 115
4 112 110 114 116
4 114 113 56 55
4 113 115 57 56
4 115 116 58 57
4 116 114 55 58
4 60 69 68 61
4 61 68 78 67
4 76 69 60 66
4 78 76 66 67
4 54 53 117 118
4 53 61 119 117
4 67 120 119 61
4 67 54 118 120
4 118 117 121 122
4 117 119 123 121
4 119 120 124 123
4 120 118 122 124
4 122 121 65 64
4 121 123 62 65
4 123 124 63 62
4 124 122 64 63
4 78 68 125 126
4 68 71 127 125
4 79 128 127 71
4 79 78 126 128
4 126 125 129 130
4 125 127 131 129
4 127 128 132 131
4 128 126 130 132
4 130 129 73 72
4 129 131 74 73
4 131 132 75 74
4 132 130 72 75
4 133 134 135 136
4 137 138 139 140
4 90 85 80 83
4 88 90 83 82
4 88 141 142 84
4 88 82 143 141
4 82 81 144 143
4 81 84 142 144
4 145 146 142 141
4 141 143 147 145
4 143 144 148 147
4 144 142 146 148
4 149 150 146 145
4 145 147 151 149
4 147 148 152 151
4 148 146 150 152
4 139 138 150 149
4 140 139 149 151
4 151 152 137 140
4 150 138 137 152
4 85 84 153 154
4 84 81 155 153
4 80 85 154 156
4 157 158 154 153
4 153 155 159 157
4 155 156 160 159
4 156 154 158 160
4 134 133 158 157
4 157 159 135 134
4 159 160 136 135
4 160 158 133 136
4 37 36 35 38
4 32 34 29 4
4 161 162 163 164
4 165 35 36 166
4 165 166 167 168
4 169 170 171 172
4 172 171 173 174
4 174 173 175 176
4 175 177 178 176
4 17 20 19 18
4 179 180 181 182
4 182 181 183 184
4 185 186 187 188
4 187 186 189 190
4 190 189 191 192
4 192 191 193 194
4 195 196 197 198
4 198 197 199 200
4 23 180 179 24
4 23 35 165 180
4 195 198 201 202
4 168 181 180 165
4 201 172 174 202
4 201 198 203 204
4 183 200 199 184
4 205 204 206 207
4 208 205 207 209
4 210 211 212 213
4 203 213 212 214
4 167 170 169 168
4 169 172 201 215
4 215 181 168 169
4 203 214 206 204
4 209 211 210 208
4 215 205 208 181
4 201 204 205 215
4 181 208 210 183
4 183 210 213 200
4 200 213 203 198
4 216 217 218 219
4 220 221 222 218
4 223 224 225 226
4 224 227 228 225
4 229 230 231 232
4 225 233 234 235
4 236 237 231 230
4 234 233 238 239
4 225 235 240 226
4 229 226 236 230
4 240 237 236 226
4 232 231 237 240
4 225 228 238 233
4 241 239 238 228
4 235 234 239 241
4 220 218 232 242
4 243 221 244 245
4 246 247 243 248
4 249 221 220 250
4 251 252 247 246
4 253 250 220 242
4 254 245 252 251
4 253 242 244 255
4 254 248 243 245
4 255 244 221 249
4 224 223 256 257
4 251 246 248 254
4 255 249 250 253
4 258 259 260 261
4 259 262 263 260
4 258 261 264 265
4 264 261 266 267
4 263 268 269 260
4 264 267 270 271
4 264 271 272 265
4 271 270 273 274
4 271 274 275 272
4 274 273 268 263
4 262 275 274 263
4 269 268 276 277
4 267 266 278 187
4 270 267 187 190
4 273 270 190 192
4 268 273 192 276
4 277 276 279 280
4 278 281 188 187
4 194 195 202 279
4 279 276 192 194
4 174 176 279 202
4 96 99 98 97
4 193 196 195 194
4 282 283 284 285
4 286 282 285 287
4 288 286 287 289
4 285 284 290 291
4 287 285 291 292
4 289 287 292 293
4 290 293 292 291
4 161 294 295 162
4 283 282 178 177
4 280 279 176 178
4 178 282 281 280
4 280 281 278 277
4 277 278 266 269
4 266 261 260 269
4 296 34 295 294
4 294 161 164 296
4 35 34 296 164
4 164 163 38 35
4 34 32 162 295
4 8 30 33 11
4 281 282 286 188
4 188 286 288 185
4 297 298 299 300
4 0 3 298 297
4 3 5 299 298
4 5 7 300 299
4 7 0 297 300
4 155 81 80 156
4 51 50 103 106
4 51 106 100 102
4 41 40 102 100
4 243 301 222 221
4 235 241 252 245
4 218 217 302 303
4 302 256 223 303
4 224 257 304 227
4 304 216 219 227
4 247 252 241 219
4 301 243 247 219
4 245 244 240 235
4 240 244 242 232
4 303 229 232 218
4 227 219 241 228
4 223 226 229 303
4 301 219 218 222
4 305 306 307 308
4 309 310 311 307
4 312 313 314 315
4 313 316 317 314
4 318 319 320 321
4 314 322 323 324
4 325 326 320 319
4 323 322 327 328
4 314 324 329 315
4 318 315 325 319
4 329 326 325 315
4 321 320 326 329
4 314 317 327 322
4 330 328 327 317
4 324 323 328 330
4 309 307 321 331
4 332 310 333 334
4 335 336 332 337
4 338 310 309 339
4 340 341 336 335
4 342 339 309 331
4 343 334 341 340
4 342 331 333 344
4 343 337 332 334
4 344 333 310 338
4 313 312 345 346
4 340 335 337 343
4 344 338 339 342
4 332 347 311 310
4 324 330 341 334
4 307 306 348 349
4 348 345 312 349
4 313 346 350 316
4 350 305 308 316
4 336 341 330 308
4 347 332 336 308
4 334 333 329 324
4 329 333 331 321
4 349 318 321 307
4 316 308 330 317
4 312 315 318 349
4 347 308 307 311
4 305 211 209 306
4 348 306 209 207
4 345 348 207 206
4 345 206 214 346
4 346 214 212 350
4 350 212 211 305
4 257 256 258 265
4 256 302 259 258
4 302 217 262 259
4 217 216 275 262
4 216 304 272 275
4 304 257 265 272
4 32 38 163 162
4 32 31 39 38
4 2 1 26 31
4 351 352 353 354
4 352 355 356 353
4 355 357 358 356
4 358 357 351 354
4 354 10 9 359
4 9 12 360 359
4 13 16 361 362
4 16 18 363 361
4 19 22 364 365
4 22 24 366 364
4 354 367 25 10
4 25 367 368 27
4 358 369 370 356
4 356 371 372 353
4 361 363 365 373
4 354 359 369 358
4 365 364 369 373
4 374 375 370 366
4 366 370 369 364
4 27 368 376 36
4 377 378 376 368
4 379 380 368 367
4 381 379 367 372
4 382 377 368 380
4 381 372 377 382
4 383 384 385 386
4 387 388 382 380
4 382 388 389 381
4 390 391 392 387
4 389 393 391 390
4 394 395 396 397
4 388 398 393 389
4 392 391 399 400
4 401 402 403 404
4 392 400 405 398
4 398 405 406 393
4 407 408 409 410
4 411 412 413 414
4 410 409 415 416
4 416 415 417 418
4 409 408 419 420
4 408 417 421 419
4 409 420 422 415
4 415 422 421 417
4 423 424 425 426
4 427 428 424 423
4 426 425 429 430
4 430 429 428 427
4 424 431 432 425
4 428 433 431 424
4 425 432 434 429
4 429 434 433 428
4 431 435 436 432
4 433 437 435 431
4 432 436 438 434
4 434 438 437 433
4 362 361 373 360
4 13 362 360 12
4 379 381 439 440
4 441 390 387 380
4 389 442 439 381
4 439 443 444 440
4 440 444 445 446
4 446 445 447 442
4 442 447 443 439
4 443 383 386 444
4 444 386 385 445
4 445 385 384 447
4 447 384 383 443
4 387 448 449 388
4 388 449 450 398
4 450 451 392 398
4 392 451 448 387
4 448 452 453 449
4 449 453 454 450
4 450 454 455 451
4 451 455 452 448
4 452 394 397 453
4 453 397 396 454
4 454 396 395 455
4 455 395 394 452
4 400 399 407 410
4 399 406 418 407
4 416 405 400 410
4 418 406 405 416
4 393 456 457 391
4 391 457 458 399
4 458 459 406 399
4 406 459 456 393
4 456 460 461 457
4 457 461 462 458
4 458 462 463 459
4 459 463 460 456
4 460 401 404 461
4 461 404 403 462
4 462 403 402 463
4 463 402 401 460
4 418 464 465 407
4 407 465 466 408
4 466 467 417 408
4 417 467 464 418
4 464 468 469 465
4 465 469 470 466
4 466 470 471 467
4 467 471 468 464
4 468 411 414 469
4 469 414 413 470
4 470 413 412 471
4 471 412 411 468
4 472 473 474 475
4 476 477 478 479
4 430 422 420 426
4 427 421 422 430
4 427 423 480 481
4 427 481 482 421
4 421 482 483 419
4 419 483 480 423
4 480 484 485 481
4 481 485 486 482
4 482 486 487 483
4 483 487 484 480
4 484 488 489 485
4 485 489 490 486
4 486 490 491 487
4 487 491 488 484
4 478 489 488 479
4 477 490 489 478
4 476 491 490 477
4 488 491 476 479
4 426 492 493 423
4 423 493 494 419
4 420 495 492 426
4 492 496 497 493
4 493 497 498 494
4 494 498 499 495
4 495 499 496 492
4 496 474 473 497
4 497 473 472 498
4 498 472 475 499
4 499 475 474 496
4 374 36 376 378
4 371 356 370 375
4 500 501 502 503
4 36 374 504 166
4 504 505 167 166
4 506 507 171 170
4 507 508 173 171
4 508 509 175 173
4 510 177 175 509
4 363 18 19 365
4 179 182 511 512
4 182 184 513 511
4 185 514 515 186
4 515 516 189 186
4 516 517 191 189
4 517 518 193 191
4 519 520 197 196
4 520 521 199 197
4 366 24 179 512
4 504 374 366 512
4 519 522 523 520
4 505 504 512 511
4 523 522 508 507
4 524 520 523 525
4 513 184 199 521
4 526 527 528 525
4 529 530 527 526
4 531 532 533 534
4 524 535 531 534
4 167 505 506 170
4 506 536 523 507
4 536 506 505 511
4 528 535 524 525
4 530 529 533 532
4 536 511 529 526
4 523 536 526 525
4 511 513 533 529
4 513 521 534 533
4 521 520 524 534
4 537 538 539 540
4 541 539 542 543
4 544 545 546 547
4 547 546 548 549
4 550 551 552 553
4 546 554 555 556
4 557 553 552 558
4 555 559 560 556
4 561 554 546 545
4 550 553 557 545
4 557 558 561 545
4 558 552 551 561
4 546 556 560 548
4 560 559 562 548
4 559 555 554 562
4 541 563 551 539
4 564 543 565 566
4 565 567 568 569
4 541 543 570 571
4 567 572 573 568
4 574 563 541 571
4 572 566 575 573
4 564 563 574 576
4 575 566 565 569
4 543 564 576 570
4 577 544 547 578
4 573 575 569 568
4 576 574 571 570
4 579 580 581 582
4 582 581 583 584
4 585 580 579 586
4 585 587 588 580
4 583 581 589 590
4 585 591 592 587
4 585 586 593 591
4 591 594 595 592
4 591 593 596 594
4 594 583 590 595
4 584 583 594 596
4 589 597 598 590
4 587 515 599 588
4 592 516 515 587
4 595 517 516 592
4 590 598 517 595
4 597 600 601 598
4 599 515 514 602
4 518 601 522 519
4 601 518 517 598
4 601 509 508 522
4 436 435 437 438
4 193 518 519 196
4 603 604 284 283
4 605 606 604 603
4 288 289 606 605
4 604 607 290 284
4 606 608 607 604
4 289 293 608 606
4 608 293 290 607
4 502 501 609 610
4 510 603 283 177
4 509 601 600 510
4 510 600 602 603
4 600 597 599 602
4 597 589 588 599
4 581 580 588 589
4 609 375 611 610
4 610 611 503 502
4 374 503 611 375
4 378 500 503 374
4 375 609 501 371
4 359 360 373 369
4 602 514 605 603
4 514 185 288 605
4 612 613 614 615
4 351 612 615 352
4 352 615 614 355
4 355 614 613 357
4 357 613 612 351
4 420 419 494 495
4 390 446 442 389
4 390 441 440 446
4 379 440 441 380
4 542 616 565 543
4 554 566 572 562
4 539 617 618 540
4 544 577 618 617
4 547 549 619 578
4 538 537 619 549
4 562 572 567 538
4 567 565 616 538
4 566 554 561 564
4 561 551 563 564
4 551 550 617 539
4 549 548 562 538
4 550 545 544 617
4 616 542 539 538
4 620 621 622 623
4 624 622 625 626
4 627 628 629 630
4 630 629 631 632
4 633 634 635 636
4 629 637 638 639
4 640 636 635 641
4 638 642 643 639
4 644 637 629 628
4 633 636 640 628
4 640 641 644 628
4 641 635 634 644
4 629 639 643 631
4 643 642 645 631
4 642 638 637 645
4 624 646 634 622
4 647 626 648 649
4 648 650 651 652
4 624 626 653 654
4 650 655 656 651
4 657 646 624 654
4 655 649 658 656
4 647 646 657 659
4 658 649 648 652
4 626 647 659 653
4 660 627 630 661
4 656 658 652 651
4 659 657 654 653
4 625 662 648 626
4 637 649 655 645
4 622 663 664 623
4 627 660 664 663
4 630 632 665 661
4 621 620 665 632
4 645 655 650 621
4 650 648 662 621
4 649 637 644 647
4 644 634 646 647
4 634 633 663 622
4 632 631 645 621
4 633 628 627 663
4 662 625 622 621
4 530 532 620 623
4 664 527 530 623
4 660 528 527 664
4 535 528 660 661
4 531 535 661 665
4 532 531 665 620
4 578 586 579 577
4 577 579 582 618
4 618 582 584 540
4 540 584 596 537
4 537 596 593 619
4 619 593 586 578
4 371 501 500 378
4 377 372 371 378
4 353 372 367 354
